/* XPM */
static char *_d152acbb0cd4f2c86f8302a90e9d4efGb5nTltTp1MccYas[] = {
/* columns rows colors chars-per-pixel */
"30 60 13 1 ",
"  c #CD88A5",
". c #96687D",
"X c #F5B1D3",
"o c #090A0B",
"O c #1D2020",
"+ c #303433",
"@ c #444947",
"# c #575C59",
"$ c #829186",
"% c #6B766E",
"& c #C2B8A1",
"* c #A49F95",
"= c None",
/* pixels */
"========**#+@@@@%&============",
"========O+ XXXX .O@===========",
"=======#  XXXXXX  .#==========",
"======# XXX .....  .#=========",
"=====# XXX .......  .#========",
"====O XXX .*&&&&&*.X ##=======",
"====@&XX .*&&&&&&*.X .#=======",
"===@ XXX .*&&&&&&*. X %%======",
"===OXXX .*&&&& &&.. XX.@======",
"===+XXX .*&&&  &&.. XX.#======",
"===+ XX . &&&  &*.  XX.#======",
"===+ XX .&&&&&&*.. XXX.#======",
"===OXXX .&&&&&&*..  XX.@======",
"===+ XX .&&&&**.....  .#======",
"===#. X .&&&&*........%=======",
"====O X..***&.......#+@=======",
"====@....&&**.***..#+++#======",
"=====#@..****.*&&*%++@+O+%====",
"=====@+#....***&*.@+@@+@@+#===",
"====+@++%...*&*.#@+##++$&$#@==",
"===@%++++#%%%%%+O+#%#++$**$+#=",
"==@%$O+#+++++O++@#%%@+#%$*$O+=",
"=++$#O@$#++++++#$$$%+O###%#O#=",
"=#+%@O#$$$$$$$%%$**#OO@+OO+@==",
"==@++o#*&**&*$$***.+o+Ooooo+==",
"===ooo#&&*&&&**&&$#OO+OooO+O@=",
"==%oOO@$$$$$$%%$%@OO++Oo+@@Oo+",
"==Oo@++++++++++++OO+++o+%#O+oo",
"=#@@OO#@oooooO+++@@@++o#==oO#@",
"O%*%OO==o++++#%%$$%@+OO===o@$$",
"o@%@Oo==o@#%%%$$$$#+O+===#O+%%",
"oOOOO+==OO#$$%$%@@+OO%===@#O+@",
"oO+Oo$==$O+##@#@+Ooo+#==#@$#O+",
"o#%+o====$+ooooooO+@++==#@*$++",
"o#%@$====*#@@++@+++@+O===@*%+%",
"O%#+*====@@#%%%%@+OO+@===#%+@=",
"o#@o#====oo+@%#+OOOoO%===@+o@=",
"oO@#+#===OoOOOoooO+OO$==%O+O@=",
"%+@$@o*==OO+OO#+O@@OO$=$#@+@==",
"=@o@+@===O++O@=#o#@O+$=+@%+#==",
"=%O+@====OOOO#==O++o+$=@+@O===",
"=========OoO+#===oooO$=*@oO===",
"=========O+##@@==O##@@*=======",
"=========$@+OO@##+$$#O#=======",
"==========@o++@Oo+##OO#=======",
"==========@+$$#OooOOoO#=======",
"==========@#&$#oo+%%#@+=======",
"==========@@&$#oo+$$$%+#======",
"=========$++%%#+O@*&*%@+======",
"========$@@@O@@@+@ X*%#O+=====",
"=======$+%$%+oO+++$*$%#O+=====",
"======$@%$*$%@@Oo+#%%##++=====",
"======#o%%%%%##@OoOOOOO+$=====",
"======*+++++++@@OoOOOOO@*=====",
"=======*+++++++OO+#%###++=====",
"==============&@+$$$$%%O+=====",
"==============%#$**$%##O+=====",
"==============+@$%%%#@++======",
"==============+O@+++@@#$======",
"=============*OoooooO%&X======"
};
