/* XPM */
static char *ad89274f25c74db2dc56150157b95755KCUHc4ABmd5mKmLL[] = {
/* columns rows colors chars-per-pixel */
"60 60 12 1 ",
"  c #303035",
". c #707287",
"X c #B5B8C9",
"o c #888D9D",
"O c #585E6E",
"+ c #454850",
"@ c #9EA5B0",
"# c #7B9770",
"$ c #B4CAA8",
"% c #652521",
"& c #A14F4B",
"* c None",
/* pixels */
"************************************************************",
"********************************.++O************************",
"*******************************oXX@@@***********************",
"***************************@.OOoXXXXXo**********************",
"*************************O.XXXXX@o@XXo.*********************",
"************************oo@XXXXo.O.@X@.*********************",
"************************XXXoo...O++oX@@*********************",
"*********&&************@@@o.OOOOO++oX@o.********************",
"********%&&&&*********@@oOOOOOOOOO.@X@.O.*******************",
"*******&%&&&&O*******X@.OOOOOOOO+.o@@o.Oo*******************",
"********%&&&%+******@@oOOOOOOOO++.@X@o.Oo*******************",
"********&%%%%+*****X@.OOOOOOOOO++.@XX@.Oo*******************",
"**********O%O*@#OOo@oOOOOOOOOO+++oXXX@.Oo*******************",
"***********O**$@OO.OOOOOOOOOO+++.@XXXXo.o*******************",
"*************#$$@O  +OOOOOOO++ +.XX@@Xo.********************",
"*************+#$$@+  +OOOOO++++O@XX@@@o*********************",
"*************O+#$$@O  +OOO++++OoXX@@@@o*********************",
"*************o++#$$@O  +OO+++OoXXX@@@oo*********************",
"************@@+  #$$@O  ++++OoXX@@@@@o.*********************",
"***********X@.O  +#$$@O   +OoXXX@@@@@@**********************",
"**********@@oOOO  +#$$$O  OoXX@@@@@@@***********************",
"*********X@.OOOOO+ +#$$#  .XXX@@@@@@.O**********************",
"********@@oOOOOO.O  +#@#OO@XX@@@@@@@.O**********************",
"*******@@.OOOOOOOO+   ++.@XX@@@@@@@o************************",
"*****o@X@O+OOOOOOOO+   .@XX@@@@@X@o*************************",
"*****@XXoOOOOOOOO+++++.@XX@@@@@@@o**************************",
"*****XXoOOOOOOOO++++Oo@XX@@@@XXoO***************************",
"*****XX.OOOOOOO++++OoXXX@@@@@@@O ***************************",
"***O@XX.+OOOOO++++OoXXX@@@@@X@.  ***************************",
"***.@X@.OOOOO++++Oo@X@@@@@@@@.+ +.**************************",
"****X@o.OOOO++ +OoX@@@@@@@X@.++Oo.**************************",
"***XXoOOOO++++O.o@@@oo@@X@oO  +.@oo*************************",
"*oo@XoO+OO+++.@XX@oooo@@@@.   *oo@X*************************",
"*.o@Xo+++.o@@@@@@@oooo@@oo*****o.o@X************************",
"**o@X@.O.oXXX@ooooooooooo********.o@X***********************",
"***XXXXX@@ooo....o@@o...*********..@@@O +*******************",
"****XXXXX@.....OOO.oo..***********...O %%&******************",
"*****..o@o......O++.***************O+ %%%&&*****************",
"******oo.OO++++O...***************** %%%++%&****************",
"*********+     +********************+%% +O%%+***************",
"************************************&%% ++%%%***************",
"************************************.%%  %%%%***************",
"************************************. %%%%%%+***************",
"************************************O+%%%%%+.o**************",
"***********************************.OO+   +.oo**************",
"***********************************...O+OO.@@o**************",
"**********************************.....oo@@@@@**************",
"*********************************oO..O.o@@@@@@oo************",
"*********************************.O....o@@@@@@@o************",
"********************************+Oo...oo@@@@@X@o************",
"********************************+O...ooo@@@@@X@oo***********",
"********************************OOOOO..oooooooooo.**********",
"******************************++++  +++++++++++O+++*********",
"*************************oO+++ +++++++++++++++++++  +O.*****",
"************************@$@oooooooooo@@@@@@@@@@@@@ooo@$@****",
"************************#$$@o@@$$$$$$$$$$$$$$$$$$$$$$$$@#***",
"*********************** O###OO#######@$$$$$$$$$$$$$$$$@#O#**",
"*********************** +##OOOO######@$$$$$$$$$$$$$$$$@#O#**",
"*********************** +##OOOO#######@@@@@@@@@@@@@@@@##O#**",
"*********************** +#O   +++++++OOOOOOOOOOOOOOOOO+++***"
};
