/* XPM */
static char *result[] = {
/* columns rows colors chars-per-pixel */
"68 29 9 1 ",
"  c #1D2628",
". c #3C4B4B",
"X c #687E70",
"o c #EE6A21",
"O c #F6C23C",
"+ c #C6A66B",
"@ c #F8EB7E",
"# c #CDD6D5",
"$ c None",
/* pixels */
"$$$$$$$$$$$$@O@@O@O@O#$$$$$$$$$$$$$$$$$$$$$$$$$$$$$$$$$$$$$$$$$$$$$$",
"$$$$$$$$$$O@@@@@@@O@@@@O@$$$$$$$$$$$$$$$$$$$$$$$$$$$$$$$$$$$$$$$$$$$",
"$$$$$$$O@OOO@@@@@@@@@@@OOO@$o$$$$$$$$$$$$$$$$$$$$$$$$$$$$$$$$$$$$$$$",
"$$$$$$@@@@@@@@@@@@@@@O@OOOOOo+$o$$$$$$$$$$$$$$$$$$$$$$$$$$$$$$$$$$$$",
"$$$$$@@@+.XXXXXXX@@@@OOOoOoOooooooo$$$$$$$$$$$$$$$$$$$$$$$$$$$$$$$$$",
"$$$$@@@+..X......X++@@Oooooooooooooooo$$$$$$$$$$$$$$$$$$$$$$$$$$$$$$",
"$$@@@@+XXXXX.......X+@@OooOoOoooooooooo$$$$$$$$$$$$$$$$$$$$$$$$$$$$$",
"$@O@@+.....X.. .....X+@@OOOOOOoooooooo$$$$$$$$$$$$$$$$$$$$$$$$$$$$$$",
"$$@@X     .X.   .XXXXX+@@OOOOOOOOoooooooooooooooo$$$$$$$$$$$$$$$$$$$",
"$$@X      XX.  .XX..XXX+@@O@OOOOOOOOoooooooooooooo$+$o$$$$$$$$$$$$$$",
"@@@X.. . .X.....X. ..XXX@@@@OOOOOOOOOOOoooooooooooooooo$o$$$$$$$$$$$",
"@O@X ............    XX+@@@@@@@OOOOOOOOOoooooooooooooooooo$$$$$$$$$$",
"@OX .....XXXX...X.   .XX+@@@@@@@@@@OOOOOOOOOOOOoooooooooooooooo$$$$$",
"@OX....XXX.X.XX..    XX.X@@@@@@@@@@@@@OOOOOOOOOOoOoOoooooooooooooooo",
"@OX ...XX    .XX..  ..XX+@@@@@@@@@@@@@@OOOOOOOOOOOoOooooooooooooo+o$",
"@OX......    ......XXXX.X@@@@@@@@@@@O@OOOOOOOoOoOoooooooooooo++o$$$$",
"@@+ .....    ......XXX..+@@@@@@@@O@OOOOOOOOooooooooooooooo+++$$$$$$$",
"@@+    ............ .XX.X@@@@@@@OOOOOOOOoOooooooooooooo+o+$$$$$$$$$$",
"@@@.   .......   .  ....+@@@@O@OOOOoOoOooooooooooooo+o$$$$$$$$$$$$$$",
"$@@X . .....    ...   .+@@@@@OOOOOooooooooooooooo+o$$$$$$$$$$$$$$$$$",
"$@@+      ..   ........X@@@@@OOoOoooooooooooo++o$$$$$$$$$$$$$$$$$$$$",
"$$@@.         ...     .+@@@@OOoooooooooooo+++$$$$$$$$$$$$$$$$$$$$$$$",
"$$@@+.       ...     .+@@O@OOOoOooooooo++$$$$$$$$$$$$$$$$$$$$$$$$$$$",
"$$$@@@.    . ..     .+@OO@@O@OOOoooo+o$$$$$$$$$$$$$$$$$$$$$$$$$$$$$$",
"$$$$@@@X           .@@@@@@@@@OOOO$O$$$$$$$$$$$$$$$$$$$$$$$$$$$$$$$$$",
"$$$$$@@@++      .+X+@@@@@@O@O@$$$$$$$$$$$$$$$$$$$$$$$$$$$$$$$$$$$$$$",
"$$$$$$@@@@+X+X+X@@@@O@@OOO@$$$$$$$$$$$$$$$$$$$$$$$$$$$$$$$$$$$$$$$$$",
"$$$$$$$$@@@O@@@O@OOOOOO$$$$$$$$$$$$$$$$$$$$$$$$$$$$$$$$$$$$$$$$$$$$$",
"$$$$$$$$$$@OO@O@OOOO$$$$$$$$$$$$$$$$$$$$$$$$$$$$$$$$$$$$$$$$$$$$$$$$"
};
