/* XPM */
static char *_9c1a6660fa04ef6aa4ae18388b1c714km2ZXElEK0Hoq9E8[] = {
/* columns rows colors chars-per-pixel */
"80 30 13 1 ",
"  c black",
". c white",
"X c #F30B12",
"o c #AF8E90",
"O c #FABDD9",
"+ c #352E32",
"@ c #A00EFA",
"# c #6D3AF4",
"$ c #058BE4",
"% c #03BC08",
"& c #F3C101",
"* c #7E776D",
"= c None",
/* pixels */
"================================================================================",
"=XXXXXXXX=========XXXXXXXX=========XXXXXXXXX==                       ===========",
"XXXXXXXXXXXXXXXXXXXXXXXXXXXXXXXXXXXXXXXXXXXX+=***********************+==========",
"XXXXXXXXXXXXXXXXXXXXXXXXXXXXXXXXXXXXXXXXXXXX+*.OOOOOOOOOOOOOOOOOOOOO.*+=========",
"XXXXXXXXXXXXXXXXXXXXXXXXXXXXXXXXXXXXXXXXXXX oOOOOOOOOOOOOOOOOOOOOOOOOOo ========",
"X&&&&&&&&XXXXXXXXX&&&&&&&&XXXXXXXXX&&&&&&&& *OOOOOOOOOOoXOOoXOOOOOOOOOo ========",
"X&&&&&&&&&XXXXXXXX&&&&&&&&XXXXXXXX&&&&&&&&& *OOOOOoOOOOooOOooOOOOOOOOOo ========",
"&&&&&&&&&&&&&&&&&&&&&&&&&&&&&&&&&&&&&&&&&&& *OOOOOXoOOOOOOOOOOOOOOOOOOo ========",
"&&&&&&&&&&&&&&&&&&&&&&&&&&&&&&&&&&&&&&&&&&& *OOXoOOOOOOOOOOOO  +.XoOOOo ===   ==",
"&&&&&&&&&&&&&&&&&&&&&&&&&&&&&&&&&&&&&&&&&&& *OOoOOOOOOOOOOOo+++++oOOOOo ===+*+==",
"&&&&&&&&&&&&&&&&&&&&&&&&&&&&&&&&&&&&&&&&&&& *OOOOOOOOOOOOO.* oo* *OOOOo ==+oo* =",
"&&&&&&&&&&&&&&&&&&&&&&&&&&&&&&&&&&&&&&&&&&& *OOOOOOOOOOOOOO* *o*o +.OOo  +o*o* =",
"&&&&&&&&&&&&&&&&&&&&&&&&&&&&&&&&&&&&&&&&&&& *OOOOOOOOOXoOOO* *o***++    +*o*o* =",
"&&&&&&&&&&&&&&&&&&&&&&&&&&&&&&&&&&&+**&&&&% *OOOOOoOOOoOOO.o *o**o*+++++*o**o* =",
"&%%%%%%%%%&&&&&&&&%%%%%%%%&&&&&&&&+    %%%% *OOOOOXoOOOOOOO* *o***oooooo****o* =",
"%%%%%%%%%%%%%%%%%%%%%%%%%%%%%%%%% +oo+      *OOOOOOOOOOoXO+ o****oo********oo**+",
"%%%%%%%%%%%%%%%%%%%%%%%%%%%%%%%%%  +o****+  *OOooOOOOOOOoO+ o**o.*+o***o*o.++oo+",
"%%%%%%%%%%%%%%%%%%%%%%%%%%%%%%%%%   ****o++ *OOXoOOOOOOOOO+ o**oO  o*****oO +o*+",
"%$$$$$$$$%%%%%%%%%$$$$$$$$%%%%%%%%%%     *o *OOOOOOOOOOOOO+ o*o*  +o*o* *+  +o*+",
"$$$$$$$$$$$$$$$$$$$$$$$$$$$$$$$$$$$$$$$$    *OOOOOOOoXOOOO+ oOOo*****oo*****oOO+",
"$$$$$$$$$$$$$$$$$$$$$$$$$$$$$$$$$$$$$$$$+++ *OOOOoOOOoOOO.  oOOOo**oo*+oo***OO.+",
"$$$$$$$$$$$$$$$$$$$$$$$$$$$$$$$$$$$$$$$$$$$ *OOOoXOOOOOOOO+ oOOOo  oo+ *o+ *OOO+",
"$#@@@@@@@#$$$$$$$$@@@@@@@@$$$$$$$$$$@@@@@@@ o.OOOOOOOOOOOXO* oo*o          *o* =",
"#@@@@@@@@#########@@@@@@@@##########@@@@@@+ +*.OOOOOOOOOOoOOo+*oo****++****o* ==",
"@@@@@@@@@@@@@@@@@@@@@@@@@@@@@@@@@@@@@@@@@+    ooooooooooooooo +*******X*****+===",
"@@@@@@@@@@@@@@@@@@@@@@@@@@@@@@@@@@@@@@@@                                    ====",
"@========@@@@@@@@@========@@@@@@@@@@=== ***o+ ==== +o*  ===== +o*+ ==== +** ====",
"======================================= ooo*+======+** =======+**  ==== *Oo ====",
"======================================= *o* ========   ========   ===== *o* ====",
"=======================================    =============================    ===="
};
