/* XPM */
static char *c2800c8da4964aebb7ad290e875fba97eBsfHQKlnkHxsZA6[] = {
/* columns rows colors chars-per-pixel */
"80 30 13 1 ",
"  c black",
". c white",
"X c red",
"o c #8F8889",
"O c #F8B8CF",
"+ c #A00FFC",
"@ c #376AEE",
"# c #048DDD",
"$ c #0CBD07",
"% c #F9C402",
"& c #48403C",
"* c #ED3421",
"= c None",
/* pixels */
"X*=======*XXXXXXXX========XXXXXXXXX=============================================",
"XXXXXXXXXXXXXXXXXXXXXXXXXXXXXXXXXXXXXXXXXXXXX=                        ==========",
"XXXXXXXXXXXXXXXXXXXXXXXXXXXXXXXXXXXXXXXXXXXX& OOOOOOOOOOOOOOOOOOOOOOOo =========",
"*XXXXXXXX*********XXXXXXXX*********XXXXXXXX&&oOOOOOOOOOO.OOO.OOOOOOOOOo ========",
"%*********%%%%%%%%********%%%%%%%%%******** &.OOOOOOOOOOOOOOOOOOOOOOOO.& =======",
"%%%%%%%%%%%%%%%%%%%%%%%%%%%%%%%%%%%%%%%%%%% &OOOOOOOOOOO*O.O*oOOOOOOOOO& =======",
"%%%%%%%%%%%%%%%%%%%%%%%%%%%%%%%%%%%%%%%%%%% &OOOOO*oOOOOOOOOOO..OOOOOOO& =======",
"%%%%%%%%%%%%%%%%%%%%%%%%%%%%%%%%%%%%%%%%%%% &OOOOO*oOOOOOOOO.OooOOOOOOO& =======",
"%%%%%%%%%%%%%%%%%%%%%%%%%%%%%%%%%%%%%%%%%%% &OO**OOOOOOOOOOO.&  oO*OOOO& ===  ==",
"%%%%%%%%%%%%%%%%%%%%%%%%%%%%%%%%%%%%%%%%%%% &OOOOOOOOOOOOOOO &oo &.OOOO& = &oo& ",
"%%%%%%%%%%%%%%%%%%%%%%%%%%%%%%%%%%%%%%%%%%% &OOOOOOOOOOOOOOO &oo&&&O.OO&  &ooo& ",
"%%%%%%%%%%%%%%%%%%%%%%%%%%%%%%%%%%%%%%%%%%% &OOOOOOOOOOOOOOO &ooo& oOoo&  oooo& ",
"$%%%%%%%%$$$$$$$$$%%%%%%%%$$$$$$$$$  &%%%%% &OOOOOOOOO**OOOO &ooooo     &ooooo& ",
"$$$$$$$$$$$$$$$$$$$$$$$$$$$$$$$$$ &&o&&$$$$ &OOOOO*oOOOOOO.O &ooooo&&&&&oooooo  ",
"$$$$$$$$$$$$$$$$$$$$$$$$$$$$$$$$$ &OO& $$$$ &OOOOO*oOOOOOOOo&&oooooooooooooooo& ",
"$$$$$$$$$$$$$$$$$$$$$$$$$$$$$$$$$  oo&      &OOOOOOOOOOO*Oo oooooooooooooooooooo",
"#$$$$$$$$$$$$$$$$$$$$$$$$$$$$$$$$$& ooooooo &OO**OOOOOOOOOo oooo.O ooooooo.o oo&",
"###################################&&&&oooo &OOOoOOOOOOOO.o ooooo& oooo&&oo& oo&",
"####################################   oooo &OOOOOOOOOOOO.o oooo   oooo  o  &ooo",
"#######################################     &OOOOOOOO*oOO.o oOOOoooooooooooooO.o",
"+########################################## &OOOO*OOOOOOO.o oOOOo&&ooo&ooo&&oO.O",
"+@@@@@@@@@++++++++@@@@@@@@++++++++++@@@@@@@ &OOOO*OOOOOOOOo&&oOOo& &o& &o& &oOOo",
"+++++++++++++++++++++++++++++++++++++++++++ &OOOOOOOOOOOO*O. &ooo&         &oo  ",
"+++++++++++++++++++++++++++++++++++++++++++  &OOOOOOOOOOOOOOO& oooooooooooooo ==",
"=+++++++++++++++++++++++++++++++++++++++++&&&&&&&&&&&&&&&&&&o& &&&&&&&&&&&&&& ==",
"=++++++++=========++++++++==========++++++ oOo                                ==",
"========================================== oOo ===== ooo ====== ooo ===== ooo ==",
"========================================== &&&=======&&& =======&&& ======&&& ==",
"================================================================================",
"================================================================================"
};
