/* XPM */
static char *_45a17e1195f4bf0b51f04f3f6cf44a3gkql9U48Y0WJuBmX[] = {
/* columns rows colors chars-per-pixel */
"80 30 13 1 ",
"  c #000000",
". c #FFFFFF",
"X c #FF0000",
"o c #918889",
"O c #F8BBD2",
"+ c #9E11FA",
"@ c #4657EA",
"# c #0290DC",
"$ c #09BD05",
"% c #F7C502",
"& c #4E4640",
"* c #E9322B",
"= c None",
/* pixels */
"==*******=========********=========*********==                       ===========",
"=XXXXXXXXX========XXXXXXXX*=======*XXXXXXXXXX=&&&&&&&&&&&&&&&&&&&&&&&&==========",
"XXXXXXXXXXXXXXXXXXXXXXXXXXXXXXXXXXXXXXXXXXXX  OOOOOOOOOOOOOOOOOOOOOO.o =========",
"XXXXXXXXXXXXXXXXXXXXXXXXXXXXXXXXXXXXXXXXXXX &OOOOOOOOOOOOOOOOOOOOOOOOOo ========",
"X*********XXXXXXXX********XXXXXXXXX******** &OOOOOOOOOOO*OOO*OOOOOOOOOO ========",
"*%%%%%%%%%X*****X*%%%%%%%%*X*****X*%%%%%%%% &OOOOOOOOOOo*OOO*OOOOOOOOOo ========",
"%%%%%%%%%%%%%%%%%%%%%%%%%%%%%%%%%%%%%%%%%%% &OOOOO*oOOOOOOOOOOOOOOOOOOo ========",
"%%%%%%%%%%%%%%%%%%%%%%%%%%%%%%%%%%%%%%%%%%% &OO**OOOOOOOOOOO.& &.O*OOOo ====  ==",
"%%%%%%%%%%%%%%%%%%%%%%%%%%%%%%%%%%%%%%%%%%% &OO*oOOOOOOOOOOOo&  o*oOOOo === &&==",
"%%%%%%%%%%%%%%%%%%%%%%%%%%%%%%%%%%%%%%%%%%% &OOOOOOOOOOOOOOo &Oo o.OOOo == oOo =",
"%%%%%%%%%%%%%%%%%%%%%%%%%%%%%%%%%%%%%%%%%%% &OOOOOOOOOOOOOOo &ooo &...O   oooo =",
"%%%%%%%%%%%%%%%%%%%%%%%%%%%%%%%%%%%%%%%%%%% &OOOOOOOOOooOOOo &ooo&&&&&& &&oooo =",
"%%%%%%%%%%%%%%%%%%%%%%%%%%%%%%%%%%%%%%%%%%% &OOOOOOOOO**OOOO &ooooo     oooooo =",
"%$$$$$$$$$%%%%%%%%$$$$$$$$%%%%%%%%%$$$$$$$$ &OOOOO*oOOOOOO.O &oooooooooooooooo =",
"$$$$$$$$$$$$$$$$$$$$$$$$$$$$$$$$$$$$$$$$$$  &OOOOOOOOOOo*Oo ooooooooooooooooooo ",
"$$$$$$$$$$$$$$$$$$$$$$$$$$$$$$$$$$$$$$ $$&& &OOOOOOOOOOO*O& ooooOo&oooooooO&&oo&",
"$$$$$$$$$$$$$$$$$$$$$$$$$$$$$$$$$$$$$    &o &OO**OOOOOOOOO& oooo.& ooooooo.  oo&",
"$$########$$$$$$$$########$$$$$$$$$  &ooooo &OOOOOOOOOOOOO& oooo   oooo &o  &oo&",
"$#################################& &ooo&&& &OOOOOOOO*OOOO& ooOo&&ooooo&oo&&oOO&",
"################################### oo&o    &OOOOOOOO*OOO.& oOOOooooooooooooOO.&",
"####################################     &# &OOOo*OOOOOOO.& oOOOo  oo& oo& &OO.&",
"#@+++++++@########@+++++++@#########@++++++ &.OOOOOOOOOOO*oo oOoo          &Oo&=",
"@+++++++++@@@@@@@@++++++++@@@@@@@@@@+++++++ &oOOO.OOOOOOO*OO&&&oo&&&&&&&&&&oo& =",
"+++++++++++++++++++++++++++++++++++++++++++   OOOOOOOOOOOOOOO  ooooooooooooo& ==",
"+++++++++++++++++++++++++++++++++++++++++++ &o                              ====",
"++========++++++++========++++++++++======= &o&  = &o&  ===== &oo  ==== &o& ====",
"+=========++++++++=========+++++++++======= &oo == &oo =======&oo  ==== &oo ====",
"===========================================    =====    =======    =====     ===",
"================================================================================",
"================================================================================"
};
