/* XPM */
static char *ff173d7dfcae48d6d175d9fca4c530f3emZvo5jxlwVeFNyX[] = {
/* columns rows colors chars-per-pixel */
"29 79 13 1 ",
"  c #7677B0",
". c #888AC5",
"X c #999BDD",
"o c #2E2F45",
"O c #464867",
"+ c #5D5F88",
"@ c #AEB1EC",
"# c #B1B3D8",
"$ c #797A8E",
"% c #C9CCE9",
"& c #A1A4BC",
"* c #E5E8FD",
"= c None",
/* pixels */
"=============++==============",
"============o+$++============",
"===========oo+$$+============",
"===========oOO$$O+===========",
"==========oooO$$+oO==========",
"========ooo++ .# oo+=========",
"========oo+ .XX@#+oO=========",
"=======oo+ ..XX@%X+O+========",
"=======OO+ .XXX@%@ +++=======",
"=====O+O+ ..XXX@%@.  +=======",
"====+O+OO ..XXXX%@. . +======",
"===++++O+ ..XXXX@%.+ X +=====",
"===O+ OO+ ..XXXX@%@ +XX++====",
"==O+  oO ..XXXXX@%@ O.@.++===",
"=OO .+oO ..XXXXX@%%.O @@ +===",
"=O+  +O+ ..XXXXXX@%X+ X@X +==",
"=O . OO+ ..XXXXXX@%X++.@@.+==",
"=+ . OO+ ..XXXXXX%%X++.@@.+==",
"=O .$OO+ .XXXXXXX%%X++.@@ +==",
"=+++OoO+..XXXXXXX@%@+O+. +===",
"==++ooo+..XXXXXXX@%@+oo+=====",
"=== ooo+..XXXXXXX@%%+oo======",
"====+oo+.XXXXXXXX@%@+o=======",
"=====Oo+.XXXXXXXX@%#+O=======",
"=====Oo+.XXXXXXXX@%#+O=======",
"=====Oo+.XXXXXXXX@%#+O=======",
"=====Oo+.XXXXXXX@@*#+O=======",
"=====Oo+.XXXXXXX@@*%+O=======",
"=====Oo+.XXXXXXX@@*%+O=======",
"=====Oo+.XXXXX@@@@*%+O=======",
"=====OO+.XXXXX@@@@*%+O=======",
"=====Oo+.XXXXX@@@@*#+O=======",
"=====OoO XXXX@@@@@%&OO=======",
"=====OoO$.X@@@@@@@%&OO=======",
"=====OO+$  .......##+O=======",
"=====OO+         .%%$O=======",
"=====OO+.XXXXXXXX@*%+O=======",
"=====OO+.XXX@@@@@@*%$O=======",
"=====OO+.XX#@@@@@@*%$O=======",
"=====OO+.XX##@@@@@*%$O=======",
"=====OO$.XX##@@@@@*%$O=======",
"=====OO$.XX##@@@@@*%$O=======",
"=====OO$.XX##@@@@@*%$O=======",
"=====OO$&XX##@@@@@*%$O=======",
"=====OO$&X###@@@@@*%$O=======",
"=====OO$&X###@@@@%*%$O=======",
"=====OO$&X###@@@@%*%$O=======",
"=====OO$&X###@@@@%*%$O=======",
"=====OO$&X###X#@@%*%$O=======",
"=====OO$&###X .@%%*%$O=======",
"=====OO$&###X .@%%*%$O=======",
"=====Oo$&####.X@%%*%$O=======",
"=====oo$&####XX@%%*%$o=======",
"=====oo$&###X .@%%*%$o=======",
"=====oo$&###X .@%%*%$oo======",
"====ooo$&####X#%%%*%$oo======",
"====ooO$&#####@%%%*%$OO+=====",
"====OOO$&##%#.X@%%*%$+$+=====",
"===++OO$&##%X  #%%*%$+&.+====",
"==O$$OO$&####.X#%%*%$+&#+====",
"==O.$OO$&####X#@%%*%$O&%$+===",
"=O$&$OO$&####X#%%%*%$O&*#++==",
"=O.&$OO$&###X.#%%%*%$+&**$+==",
"O+&&$OO$&####X#%%%*%$+&**&+==",
"+$&&$OO$&##%#X#%%%*%$+&**% +=",
"+&&&$OO$&##%#.#%%%*%$+&***#+=",
"$&&&$OO$&##%X X%%%*%$+&***%$+",
"$&&&$OO$&##%#.#%%%*%$+&***%$O",
"$&&&$OO$&##%###%%%*%$+&***%$O",
"$&&&$OO$&##%#X##%%*%$+&***%$O",
"$&&&$OO$&##%# .#%%*%$+&***%$O",
"$&&&$OO$&##%#..#%**%$+&***%$O",
"$&&&$OO$&##%###%%%*%$+&***%$O",
"$&&&$OO$&##%%%%%%%*%$+&***%$O",
"$###$OO$&##%%%%%%%*%$+&***%$O",
"O$$&$OO$#%%%%*******$+&%%#$O=",
"OO+$OoO$&##%%%%%%%*%$O+&$$===",
"==$+OooO$$$$$$$$$&&&Ooo======",
"==== ++  $$ $$$ $$..$+======="
};
