/* XPM */
static char *_d80ed46a684484fa1ab3a05345c7f4fazMaS1p9uCt44Lfu[] = {
/* columns rows colors chars-per-pixel */
"40 31 14 1 ",
"  c #1E2D34",
". c #141E22",
"X c #4B646E",
"o c #394B52",
"O c #64A1B4",
"+ c #62838E",
"@ c #47CDF1",
"# c #253F44",
"$ c #AFEDF4",
"% c #094F06",
"& c #061705",
"* c #0F8D01",
"= c #74681A",
"- c None",
/* pixels */
"-----------------ooXXXo-----------------",
"---------------X++++++++X---------------",
"-------------XXO$$OXXO$$++X-------------",
"-----------XXO$$OX#%%o+O$$+X------------",
"----------XO$$$O %%**%%#O$$$O-----------",
"----------X$$$+#********#O$$$X#---------",
"---------XO$$O#%********%#O$$Oo---------",
"---------+$$$+%%%&%**%&%%.+$$$+---------",
"--------oO$$$O#%&&&%%&&&%#O$$$Oo--------",
"--------+$$$$$+%%&&%%&&%%+$$$$$+--------",
"-------XO$OXO$$#%*%**%*%#$$+oO$Oo-------",
"-------XOO#%#O$+%**%%**%+$O%%oOOo-------",
"------ #o &%& +X.%%&&%%.++.&%& o .------",
"---Xoo#    #   #        #   #    #oo----",
"--o. #########  ########  #########  o--",
"-X .                                . --",
"XXXXXXXXXXXXXXXXXXXXXXXXXXXXXXXXXXXXXXX-",
"+@O+++O@@O++++O@@O++++O@@O++++O@@++++O@X",
"@@@O++@@@@O++O@@@@O++O@@@@+++O@@@O++O@@@",
"@@@O++@@@@O+XO@@@@OX+O@@@@OX+O@@@@++@@@@",
"@@@O++O@@@O+++@@@@+++O@@@O+++O@@@O++O@@O",
"X+O++++OOO++++OOO+++++OOO+++++O@O++++O+X",
"-o#oooooooooooooooooooooooooooooooooo#o-",
"--.&   .&.   .&.  ...   .&.   .&.  .& --",
"--- .#Xo. oXX#. oXo..oXo .#XXo. oX .#---",
"----XooXo#oX++# XOX  ++X o++XooXXooX----",
"------Xoo#. X+X o+X  ++o XOX .#ooX------",
"--------X#.& XX##XX##XX oXX &.#X--------",
"-----------o. o#.#X  X#.oo .o-----------",
"--------------X#&. .. .&#X--------------",
"---------------==========---------------"
};
